<svg width="293" height="420" viewBox="0 0 293 420" fill="none" xmlns="http://www.w3.org/2000/svg">
<path d="M129 11L128 54L77 85V41L129 11Z" fill="#D9D9D9"/>
<path d="M128 73V127L76 136V105L128 73Z" fill="#D9D9D9"/>
<path d="M127 139L126 217L81 194V153L127 139Z" fill="#D9D9D9"/>
<path d="M126 237V317L141 417L83 339V221L126 237Z" fill="#D9D9D9"/>
<g filter="url(#filter0_d_31_144)">
<path d="M167 232V312L152 412L210 334V216L167 232Z" fill="#D9D9D9"/>
</g>
<path d="M159 11L221 31V75L161 50L159 11Z" fill="#D9D9D9"/>
<path d="M164 67L216 96L220 137L164 123V67Z" fill="#D9D9D9"/>
<path d="M212 153L217 197L165 210V142L212 153Z" fill="#D9D9D9"/>
<path d="M57 27L21 63L1 7L57 27Z" fill="#D9D9D9"/>
<path d="M55 38L58 84L24 70L55 38Z" fill="#D9D9D9"/>
<path d="M61 96L67.5 154L30 126L23 78L61 96Z" fill="#D9D9D9"/>
<path d="M67 161V215L30 191L32 134L67 161Z" fill="#D9D9D9"/>
<path d="M59 227L69 281V386L43 388L0 320L18 252L21 208L59 227Z" fill="#D9D9D9"/>
<path d="M235 20L271 56L291 0L235 20Z" fill="#D9D9D9"/>
<path d="M236 31L233 77L267 63L236 31Z" fill="#D9D9D9"/>
<path d="M233.5 89L227 147L264.5 119L271.5 71L233.5 89Z" fill="#D9D9D9"/>
<path d="M228 153V207L265 183L263 126L228 153Z" fill="#D9D9D9"/>
<path d="M234 217L224 271V376L250 378L293 310L275 242L272 198L234 217Z" fill="#D9D9D9"/>
<defs>
<filter id="filter0_d_31_144" x="148" y="216" width="66" height="204" filterUnits="userSpaceOnUse" color-interpolation-filters="sRGB">
<feFlood flood-opacity="0" result="BackgroundImageFix"/>
<feColorMatrix in="SourceAlpha" type="matrix" values="0 0 0 0 0 0 0 0 0 0 0 0 0 0 0 0 0 0 127 0" result="hardAlpha"/>
<feOffset dy="4"/>
<feGaussianBlur stdDeviation="2"/>
<feComposite in2="hardAlpha" operator="out"/>
<feColorMatrix type="matrix" values="0 0 0 0 0 0 0 0 0 0 0 0 0 0 0 0 0 0 0.25 0"/>
<feBlend mode="normal" in2="BackgroundImageFix" result="effect1_dropShadow_31_144"/>
<feBlend mode="normal" in="SourceGraphic" in2="effect1_dropShadow_31_144" result="shape"/>
</filter>
</defs>
</svg>
