<svg width="156" height="769" viewBox="0 0 156 769" fill="none" xmlns="http://www.w3.org/2000/svg">
<path d="M132.933 0L123 97.5L146 302L156 172L132.933 0Z" fill="#D9D9D9"/>
<path d="M114 24L11 208L4 304.5L38 216.5L114 112V24Z" fill="#D9D9D9"/>
<path d="M114 127L55 210.5L29 311L43 404.5L98 311L120 197L114 127Z" fill="#D9D9D9"/>
<path d="M32.5 256L-1.52588e-05 320L19 440L35.5 428L19 315L32.5 256Z" fill="#D9D9D9"/>
<path d="M124 218L115 318L70.9999 384L86.9999 410L136.469 318L124 218Z" fill="#D9D9D9"/>
<path d="M92 27L26 86.5L52 109.5L92 27Z" fill="#D9D9D9"/>
<path d="M22 91L10 111.033L13 178L53 119.033L22 91Z" fill="#D9D9D9"/>
<path d="M129.846 360L105 460L118.846 450L129.847 510L129.846 360Z" fill="#D9D9D9"/>
<path d="M89 424H55L44 440L65 506H83V464L96 448L89 424Z" fill="#D9D9D9"/>
<path d="M23 437V495L57 591L63 533L23 437Z" fill="#D9D9D9"/>
<path d="M113 468L80 540L85 686L67 764L85 768L129.708 606L113 468Z" fill="#D9D9D9"/>
<path d="M24 519L11 575L19 639L37.5 675L51 769L53 675V605L24 519Z" fill="#D9D9D9"/>
</svg>
