<svg width="162" height="756" viewBox="0 0 162 756" fill="none" xmlns="http://www.w3.org/2000/svg">
<path d="M23.0673 0L33 97.5L0 299.5V162L23.0673 0Z" fill="#D9D9D9"/>
<path d="M38 3.5L151 176V252L117 164L41 85.5L38 3.5Z" fill="#D9D9D9"/>
<path d="M40 100.5L95 190L121 290.5L107 384L52 290.5L30 176.5L40 100.5Z" fill="#D9D9D9"/>
<path d="M117.5 212.5L150 276.5L131 396.5L114.5 384.5L131 271.5L117.5 212.5Z" fill="#D9D9D9"/>
<path d="M29.0001 191.5V291.5L91.0001 366L69.0001 396L16.5315 291.5L29.0001 191.5Z" fill="#D9D9D9"/>
<path d="M61 17.5L139 68L115 98L61 17.5Z" fill="#D9D9D9"/>
<path d="M144 71L162 96.0333L159 163L119 104.033L144 71Z" fill="#D9D9D9"/>
<path d="M16.0001 346L40.8465 446L27.0001 436L16 496L16.0001 346Z" fill="#D9D9D9"/>
<path d="M50 408H84L95 424L74 490H56V448L43 432L50 408Z" fill="#D9D9D9"/>
<path d="M115 413V471L85 567L75 509L115 413Z" fill="#D9D9D9"/>
<path d="M29.7076 449L62.7076 521L57.7076 667L75.7076 751H57.7076L13 587L29.7076 449Z" fill="#D9D9D9"/>
<path d="M110 506L129 562L121 626L102.5 662L89 756L87 662V592L110 506Z" fill="#D9D9D9"/>
</svg>
